<?xml version="1.0" encoding="UTF-8" standalone="no"?>
<!-- Created with Inkscape (http://www.inkscape.org/) -->

<svg
   xmlns:dc="http://purl.org/dc/elements/1.1/"
   xmlns:cc="http://creativecommons.org/ns#"
   xmlns:rdf="http://www.w3.org/1999/02/22-rdf-syntax-ns#"
   xmlns:svg="http://www.w3.org/2000/svg"
   xmlns="http://www.w3.org/2000/svg"
   xmlns:sodipodi="http://sodipodi.sourceforge.net/DTD/sodipodi-0.dtd"
   xmlns:inkscape="http://www.inkscape.org/namespaces/inkscape"
   width="228.3394"
   height="275.30154"
   id="svg2"
   version="1.1"
   inkscape:version="0.48.2 r9819"
   sodipodi:docname="board-diagram.svg">
  <defs
     id="defs4" />
  <sodipodi:namedview
     id="base"
     pagecolor="#ffffff"
     bordercolor="#666666"
     borderopacity="1.0"
     inkscape:pageopacity="0.0"
     inkscape:pageshadow="2"
     inkscape:zoom="1.979899"
     inkscape:cx="258.47353"
     inkscape:cy="82.06779"
     inkscape:document-units="in"
     inkscape:current-layer="layer3"
     showgrid="false"
     inkscape:window-width="1920"
     inkscape:window-height="1176"
     inkscape:window-x="0"
     inkscape:window-y="24"
     inkscape:window-maximized="1"
     showguides="true"
     inkscape:guide-bbox="true"
     fit-margin-top="0"
     fit-margin-left="0"
     fit-margin-right="0"
     fit-margin-bottom="0"
     units="in" />
  <metadata
     id="metadata7">
    <rdf:RDF>
      <cc:Work
         rdf:about="">
        <dc:format>image/svg+xml</dc:format>
        <dc:type
           rdf:resource="http://purl.org/dc/dcmitype/StillImage" />
        <dc:title />
      </cc:Work>
    </rdf:RDF>
  </metadata>
  <g
     inkscape:label="Board"
     inkscape:groupmode="layer"
     id="layer1"
     style="display:inline"
     transform="translate(6.7361032,-3.502502)">
    <rect
       style="opacity:0.9;fill:#e9da8f;fill-opacity:1;stroke:none"
       id="rect2985"
       width="130.4382"
       height="275.30154"
       x="4.3316116"
       y="3.502502" />
    <g
       transform="matrix(0.61218626,0,0,0.61218626,-87.168998,-127.94992)"
       id="g3062">
      <path
         d="m 357.85713,257.36218 c 0,5.12836 -3.99746,9.28572 -8.92857,9.28572 -4.93112,0 -8.92857,-4.15736 -8.92857,-9.28572 0,-5.12836 3.99745,-9.28571 8.92857,-9.28571 4.93111,0 8.92857,4.15735 8.92857,9.28571 z"
         sodipodi:ry="9.2857141"
         sodipodi:rx="8.9285717"
         sodipodi:cy="257.36218"
         sodipodi:cx="348.92856"
         id="path3064"
         style="opacity:0.9;fill:#2e504e;fill-opacity:1;stroke:none"
         sodipodi:type="arc"
         transform="translate(-122.85714,385.71428)" />
    </g>
    <path
       style="fill:none;stroke:#f69494;stroke-width:1.83655882;stroke-linecap:butt;stroke-linejoin:miter;stroke-miterlimit:4;stroke-opacity:1;stroke-dasharray:none"
       d="m 72.272489,25.743947 0,237.156973"
       id="path4002"
       inkscape:connector-curvature="0" />
    <path
       style="fill:none;stroke:#f69494;stroke-width:1.83655882;stroke-linecap:butt;stroke-linejoin:miter;stroke-miterlimit:4;stroke-opacity:1;stroke-dasharray:none"
       d="m 121.43541,25.743947 0,237.156973"
       id="path4096"
       inkscape:connector-curvature="0" />
    <path
       inkscape:connector-curvature="0"
       id="path4098"
       d="m 130.40223,25.743947 0,237.156973"
       style="fill:none;stroke:#f69494;stroke-width:1.83655882;stroke-linecap:butt;stroke-linejoin:miter;stroke-miterlimit:4;stroke-opacity:1;stroke-dasharray:none" />
    <text
       xml:space="preserve"
       style="font-size:7.34623528px;font-style:normal;font-weight:normal;line-height:125%;letter-spacing:0px;word-spacing:0px;fill:#000000;fill-opacity:1;stroke:none;font-family:Sans"
       x="109.06739"
       y="23.888733"
       id="text4100"
       sodipodi:linespacing="125%"><tspan
         sodipodi:role="line"
         id="tspan4102"
         x="109.06739"
         y="23.888733">+5V</tspan></text>
    <text
       xml:space="preserve"
       style="font-size:7.34623528px;font-style:normal;font-weight:normal;line-height:125%;letter-spacing:0px;word-spacing:0px;fill:#000000;fill-opacity:1;stroke:none;font-family:Sans"
       x="144.00705"
       y="263.21014"
       id="text4104"
       sodipodi:linespacing="125%"><tspan
         sodipodi:role="line"
         id="tspan4106"
         x="144.00705"
         y="263.21014">Supply voltage:</tspan><tspan
         sodipodi:role="line"
         x="144.00705"
         y="272.39294"
         id="tspan4108">+/- 9V</tspan></text>
    <text
       sodipodi:linespacing="125%"
       id="text4110"
       y="23.27034"
       x="127.61942"
       style="font-size:7.34623528px;font-style:normal;font-weight:normal;line-height:125%;letter-spacing:0px;word-spacing:0px;fill:#000000;fill-opacity:1;stroke:none;font-family:Sans"
       xml:space="preserve"><tspan
         y="23.27034"
         x="127.61942"
         id="tspan4112"
         sodipodi:role="line">-5V</tspan></text>
  </g>
  <g
     inkscape:groupmode="layer"
     id="layer3"
     inkscape:label="Components"
     transform="translate(6.7361032,-3.502502)">
    <rect
       style="fill:#000000;fill-opacity:1;stroke:none"
       id="rect3755"
       width="9.1827955"
       height="29.297482"
       x="46.2006"
       y="36.741028" />
    <rect
       y="119.73599"
       x="60.280891"
       height="26.673824"
       width="20.989244"
       id="rect3759"
       style="fill:#000000;fill-opacity:1;stroke:none" />
    <g
       id="g3863"
       transform="matrix(0.61218626,0,0,0.61218626,-107.73917,-72.792773)">
      <path
         transform="translate(-48.571428,192.85714)"
         sodipodi:type="arc"
         style="opacity:0.9;fill:#29b1aa;fill-opacity:1;stroke:none"
         id="path3769"
         sodipodi:cx="348.92856"
         sodipodi:cy="257.36218"
         sodipodi:rx="8.9285717"
         sodipodi:ry="9.2857141"
         d="m 357.85713,257.36218 c 0,5.12836 -3.99746,9.28572 -8.92857,9.28572 -4.93112,0 -8.92857,-4.15736 -8.92857,-9.28572 0,-5.12836 3.99745,-9.28571 8.92857,-9.28571 4.93111,0 8.92857,4.15735 8.92857,9.28571 z" />
      <text
         sodipodi:linespacing="125%"
         id="text3785"
         y="455.53769"
         x="311.42856"
         style="font-size:14px;font-style:normal;font-weight:normal;line-height:125%;letter-spacing:0px;word-spacing:0px;fill:#000000;fill-opacity:1;stroke:none;font-family:Bitstream Vera Sans;-inkscape-font-specification:Sans"
         xml:space="preserve"><tspan
           y="455.53769"
           x="311.42856"
           id="tspan3787"
           sodipodi:role="line">Y Diff In</tspan></text>
    </g>
    <g
       id="g3858"
       transform="matrix(0.61218626,0,0,0.61218626,-115.17286,-71.480943)">
      <path
         transform="translate(-2.1428571,125)"
         d="m 357.85713,257.36218 c 0,5.12836 -3.99746,9.28572 -8.92857,9.28572 -4.93112,0 -8.92857,-4.15736 -8.92857,-9.28572 0,-5.12836 3.99745,-9.28571 8.92857,-9.28571 4.93111,0 8.92857,4.15735 8.92857,9.28571 z"
         sodipodi:ry="9.2857141"
         sodipodi:rx="8.9285717"
         sodipodi:cy="257.36218"
         sodipodi:cx="348.92856"
         id="path3765"
         style="opacity:0.9;fill:#54d74f;fill-opacity:1;stroke:none"
         sodipodi:type="arc" />
      <text
         sodipodi:linespacing="125%"
         id="text3789"
         y="387.58142"
         x="357.85715"
         style="font-size:14px;font-style:normal;font-weight:normal;line-height:125%;letter-spacing:0px;word-spacing:0px;fill:#000000;fill-opacity:1;stroke:none;font-family:Bitstream Vera Sans;-inkscape-font-specification:Sans"
         xml:space="preserve"><tspan
           y="387.58142"
           x="357.85715"
           id="tspan3791"
           sodipodi:role="line">Y Diff Out</tspan></text>
    </g>
    <g
       id="g3853"
       transform="matrix(0.61218626,0,0,0.61218626,-82.814443,-60.111773)">
      <path
         transform="translate(-130,96.428571)"
         sodipodi:type="arc"
         style="opacity:0.9;fill:#54d74f;fill-opacity:1;stroke:none"
         id="path3773"
         sodipodi:cx="348.92856"
         sodipodi:cy="257.36218"
         sodipodi:rx="8.9285717"
         sodipodi:ry="9.2857141"
         d="m 357.85713,257.36218 c 0,5.12836 -3.99746,9.28572 -8.92857,9.28572 -4.93112,0 -8.92857,-4.15736 -8.92857,-9.28572 0,-5.12836 3.99745,-9.28571 8.92857,-9.28571 4.93111,0 8.92857,4.15735 8.92857,9.28571 z" />
      <text
         sodipodi:linespacing="125%"
         id="text3793"
         y="359.00998"
         x="138.57143"
         style="font-size:14px;font-style:normal;font-weight:normal;line-height:125%;letter-spacing:0px;word-spacing:0px;fill:#000000;fill-opacity:1;stroke:none;font-family:Bitstream Vera Sans;-inkscape-font-specification:Sans"
         xml:space="preserve"><tspan
           y="359.00998"
           x="138.57143"
           id="tspan3795"
           sodipodi:role="line">X Diff Out</tspan></text>
    </g>
    <g
       id="g3868"
       transform="matrix(0.61218626,0,0,0.61218626,-93.74634,-73.667323)">
      <path
         d="m 357.85713,257.36218 c 0,5.12836 -3.99746,9.28572 -8.92857,9.28572 -4.93112,0 -8.92857,-4.15736 -8.92857,-9.28572 0,-5.12836 3.99745,-9.28571 8.92857,-9.28571 4.93111,0 8.92857,4.15735 8.92857,9.28571 z"
         sodipodi:ry="9.2857141"
         sodipodi:rx="8.9285717"
         sodipodi:cy="257.36218"
         sodipodi:cx="348.92856"
         id="path3771"
         style="opacity:0.9;fill:#29b1aa;fill-opacity:1;stroke:none"
         sodipodi:type="arc"
         transform="translate(-110.71429,187.14286)" />
      <text
         sodipodi:linespacing="125%"
         id="text3797"
         y="449.82339"
         x="170.71428"
         style="font-size:14px;font-style:normal;font-weight:normal;line-height:125%;letter-spacing:0px;word-spacing:0px;fill:#000000;fill-opacity:1;stroke:none;font-family:Bitstream Vera Sans;-inkscape-font-specification:Sans"
         xml:space="preserve"><tspan
           y="449.82339"
           x="170.71428"
           id="tspan3799"
           sodipodi:role="line">X Diff In</tspan></text>
    </g>
    <g
       id="g3888"
       transform="matrix(0.61218626,0,0,0.61218626,-94.589816,-139.69955)">
      <path
         transform="translate(-122.85714,385.71428)"
         sodipodi:type="arc"
         style="opacity:0.9;fill:#29b1aa;fill-opacity:1;stroke:none"
         id="path3777"
         sodipodi:cx="348.92856"
         sodipodi:cy="257.36218"
         sodipodi:rx="8.9285717"
         sodipodi:ry="9.2857141"
         d="m 357.85713,257.36218 c 0,5.12836 -3.99746,9.28572 -8.92857,9.28572 -4.93112,0 -8.92857,-4.15736 -8.92857,-9.28572 0,-5.12836 3.99745,-9.28571 8.92857,-9.28571 4.93111,0 8.92857,4.15735 8.92857,9.28571 z" />
      <text
         sodipodi:linespacing="125%"
         id="text3805"
         y="648.17267"
         x="153.57143"
         style="font-size:14px;font-style:normal;font-weight:normal;line-height:125%;letter-spacing:0px;word-spacing:0px;fill:#000000;fill-opacity:1;stroke:none;font-family:Bitstream Vera Sans;-inkscape-font-specification:Sans"
         xml:space="preserve"><tspan
           y="648.17267"
           x="153.57143"
           id="tspan3807"
           sodipodi:role="line">X Sum In</tspan></text>
    </g>
    <g
       id="g3878"
       transform="matrix(0.61218626,0,0,0.61218626,-119.87679,-123.43621)">
      <path
         d="m 357.85713,257.36218 c 0,5.12836 -3.99746,9.28572 -8.92857,9.28572 -4.93112,0 -8.92857,-4.15736 -8.92857,-9.28572 0,-5.12836 3.99745,-9.28571 8.92857,-9.28571 4.93111,0 8.92857,4.15735 8.92857,9.28571 z"
         sodipodi:ry="9.2857141"
         sodipodi:rx="8.9285717"
         sodipodi:cy="257.36218"
         sodipodi:cx="348.92856"
         id="path3783"
         style="opacity:0.9;fill:#54d74f;fill-opacity:1;stroke:none"
         sodipodi:type="arc"
         transform="translate(7.1428602,322.85713)" />
      <text
         sodipodi:linespacing="125%"
         id="text3809"
         y="585.31549"
         x="367.14285"
         style="font-size:14px;font-style:normal;font-weight:normal;line-height:125%;letter-spacing:0px;word-spacing:0px;fill:#000000;fill-opacity:1;stroke:none;font-family:Bitstream Vera Sans;-inkscape-font-specification:Sans"
         xml:space="preserve"><tspan
           y="585.31549"
           x="367.14285"
           id="tspan3811"
           sodipodi:role="line">Y Sum Out</tspan></text>
    </g>
    <g
       id="g3883"
       transform="matrix(0.61218626,0,0,0.61218626,-119.43952,-132.61901)">
      <path
         transform="translate(7.8571459,357.85713)"
         sodipodi:type="arc"
         style="opacity:0.9;fill:#29b1aa;fill-opacity:1;stroke:none"
         id="path3781"
         sodipodi:cx="348.92856"
         sodipodi:cy="257.36218"
         sodipodi:rx="8.9285717"
         sodipodi:ry="9.2857141"
         d="m 357.85713,257.36218 c 0,5.12836 -3.99746,9.28572 -8.92857,9.28572 -4.93112,0 -8.92857,-4.15736 -8.92857,-9.28572 0,-5.12836 3.99745,-9.28571 8.92857,-9.28571 4.93111,0 8.92857,4.15735 8.92857,9.28571 z" />
      <text
         sodipodi:linespacing="125%"
         id="text3813"
         y="620.31549"
         x="367.85715"
         style="font-size:14px;font-style:normal;font-weight:normal;line-height:125%;letter-spacing:0px;word-spacing:0px;fill:#000000;fill-opacity:1;stroke:none;font-family:Bitstream Vera Sans;-inkscape-font-specification:Sans"
         xml:space="preserve"><tspan
           y="620.31549"
           x="367.85715"
           id="tspan3815"
           sodipodi:role="line">Y Sum In</tspan></text>
    </g>
    <g
       id="g3903"
       transform="matrix(0.61218626,0,0,0.61218626,-103.33533,-20.525443)">
      <path
         d="m 357.85713,257.36218 c 0,5.12836 -3.99746,9.28572 -8.92857,9.28572 -4.93112,0 -8.92857,-4.15736 -8.92857,-9.28572 0,-5.12836 3.99745,-9.28571 8.92857,-9.28571 4.93111,0 8.92857,4.15735 8.92857,9.28571 z"
         sodipodi:ry="9.2857141"
         sodipodi:rx="8.9285717"
         sodipodi:cy="257.36218"
         sodipodi:cx="348.92856"
         id="path3823"
         style="opacity:0.9;fill:#3a239c;fill-opacity:1;stroke:none"
         sodipodi:type="arc"
         transform="translate(-36.428579,-177.85714)" />
      <text
         sodipodi:linespacing="125%"
         id="text3837"
         y="84.60807"
         x="325"
         style="font-size:14px;font-style:normal;font-weight:normal;line-height:125%;letter-spacing:0px;word-spacing:0px;fill:#000000;fill-opacity:1;stroke:none;font-family:Bitstream Vera Sans;-inkscape-font-specification:Sans"
         xml:space="preserve"><tspan
           y="84.60807"
           x="325"
           id="tspan3839"
           sodipodi:role="line">V-</tspan></text>
    </g>
    <g
       id="g3908"
       transform="matrix(0.61218626,0,0,0.61218626,-103.33533,-20.525443)">
      <path
         d="m 357.85713,257.36218 c 0,5.12836 -3.99746,9.28572 -8.92857,9.28572 -4.93112,0 -8.92857,-4.15736 -8.92857,-9.28572 0,-5.12836 3.99745,-9.28571 8.92857,-9.28571 4.93111,0 8.92857,4.15735 8.92857,9.28571 z"
         sodipodi:ry="9.2857141"
         sodipodi:rx="8.9285717"
         sodipodi:cy="257.36218"
         sodipodi:cx="348.92856"
         id="path3819"
         style="opacity:0.9;fill:#3a239c;fill-opacity:1;stroke:none"
         sodipodi:type="arc"
         transform="translate(-82.142865,-177.85714)" />
      <text
         sodipodi:linespacing="125%"
         id="text3841"
         y="84.60807"
         x="234.28572"
         style="font-size:14px;font-style:normal;font-weight:normal;line-height:125%;letter-spacing:0px;word-spacing:0px;fill:#000000;fill-opacity:1;stroke:none;font-family:Bitstream Vera Sans;-inkscape-font-specification:Sans"
         xml:space="preserve"><tspan
           y="84.60807"
           x="234.28572"
           id="tspan3843"
           sodipodi:role="line">V+</tspan></text>
    </g>
    <g
       id="g3898"
       transform="matrix(0.61218626,0,0,0.61218626,-104.34874,-20.525443)">
      <path
         transform="translate(-59.323425,-177.85714)"
         sodipodi:type="arc"
         style="opacity:0.9;fill:#3a239c;fill-opacity:1;stroke:none"
         id="path3821"
         sodipodi:cx="348.92856"
         sodipodi:cy="257.36218"
         sodipodi:rx="8.9285717"
         sodipodi:ry="9.2857141"
         d="m 357.85713,257.36218 c 0,5.12836 -3.99746,9.28572 -8.92857,9.28572 -4.93112,0 -8.92857,-4.15736 -8.92857,-9.28572 0,-5.12836 3.99745,-9.28571 8.92857,-9.28571 4.93111,0 8.92857,4.15735 8.92857,9.28571 z" />
      <text
         sodipodi:linespacing="125%"
         id="text3845"
         y="69.323021"
         x="273.57144"
         style="font-size:14px;font-style:normal;font-weight:normal;line-height:125%;letter-spacing:0px;word-spacing:0px;fill:#000000;fill-opacity:1;stroke:none;font-family:Bitstream Vera Sans;-inkscape-font-specification:Sans"
         xml:space="preserve"><tspan
           y="69.323021"
           x="273.57144"
           id="tspan3847"
           sodipodi:role="line">GND</tspan></text>
    </g>
    <g
       id="g3893"
       transform="matrix(0.61218626,0,0,0.61218626,-102.38576,-144.42546)">
      <path
         d="m 357.85713,257.36218 c 0,5.12836 -3.99746,9.28572 -8.92857,9.28572 -4.93112,0 -8.92857,-4.15736 -8.92857,-9.28572 0,-5.12836 3.99745,-9.28571 8.92857,-9.28571 4.93111,0 8.92857,4.15735 8.92857,9.28571 z"
         sodipodi:ry="9.2857141"
         sodipodi:rx="8.9285717"
         sodipodi:cy="257.36218"
         sodipodi:cx="348.92856"
         id="path3779"
         style="opacity:0.9;fill:#3a239c;fill-opacity:1;stroke:none"
         sodipodi:type="arc"
         transform="translate(-65.714283,407.14285)" />
      <text
         sodipodi:linespacing="125%"
         id="text3849"
         y="682.22809"
         x="286.62289"
         style="font-size:14px;font-style:normal;font-weight:normal;line-height:125%;letter-spacing:0px;word-spacing:0px;fill:#000000;fill-opacity:1;stroke:none;font-family:Bitstream Vera Sans;-inkscape-font-specification:Sans"
         xml:space="preserve"><tspan
           y="682.22809"
           x="286.62289"
           id="tspan3851"
           sodipodi:role="line">GND</tspan></text>
    </g>
    <rect
       y="36.741028"
       x="87.741798"
       height="29.297482"
       width="9.1827955"
       id="rect3918"
       style="fill:#000000;fill-opacity:1;stroke:none" />
    <rect
       style="fill:#000000;fill-opacity:1;stroke:none"
       id="rect3925"
       width="20.989244"
       height="26.673824"
       x="60.280891"
       y="167.39908" />
    <rect
       y="224.3324"
       x="60.280891"
       height="26.673824"
       width="20.989244"
       id="rect3929"
       style="fill:#000000;fill-opacity:1;stroke:none" />
    <g
       id="g3128"
       transform="matrix(0.61218626,0,0,0.61218626,-94.077515,1.4497872)">
      <path
         transform="translate(-159.32191,-128.27942)"
         sodipodi:type="arc"
         style="opacity:0.9;fill:#3a239c;fill-opacity:1;stroke:none"
         id="path3819-4"
         sodipodi:cx="348.92856"
         sodipodi:cy="257.36218"
         sodipodi:rx="8.9285717"
         sodipodi:ry="9.2857141"
         d="m 357.85713,257.36218 c 0,5.12836 -3.99746,9.28572 -8.92857,9.28572 -4.93112,0 -8.92857,-4.15736 -8.92857,-9.28572 0,-5.12836 3.99745,-9.28571 8.92857,-9.28571 4.93111,0 8.92857,4.15735 8.92857,9.28571 z" />
      <path
         transform="matrix(1,0,0,-1,-137.09855,386.44495)"
         sodipodi:type="arc"
         style="opacity:0.9;fill:#3a239c;fill-opacity:1;stroke:none"
         id="path3819-47"
         sodipodi:cx="348.92856"
         sodipodi:cy="257.36218"
         sodipodi:rx="8.9285717"
         sodipodi:ry="9.2857141"
         d="m 357.85713,257.36218 c 0,5.12836 -3.99746,9.28572 -8.92857,9.28572 -4.93112,0 -8.92857,-4.15736 -8.92857,-9.28572 0,-5.12836 3.99745,-9.28571 8.92857,-9.28571 4.93111,0 8.92857,4.15735 8.92857,9.28571 z" />
      <path
         transform="translate(-115.38027,-128.27942)"
         sodipodi:type="arc"
         style="opacity:0.9;fill:#3a239c;fill-opacity:1;stroke:none"
         id="path3819-6"
         sodipodi:cx="348.92856"
         sodipodi:cy="257.36218"
         sodipodi:rx="8.9285717"
         sodipodi:ry="9.2857141"
         d="m 357.85713,257.36218 c 0,5.12836 -3.99746,9.28572 -8.92857,9.28572 -4.93112,0 -8.92857,-4.15736 -8.92857,-9.28572 0,-5.12836 3.99745,-9.28571 8.92857,-9.28571 4.93111,0 8.92857,4.15735 8.92857,9.28571 z" />
      <path
         transform="translate(-93.156915,-128.27942)"
         sodipodi:type="arc"
         style="opacity:0.9;fill:#3a239c;fill-opacity:1;stroke:none"
         id="path3819-3"
         sodipodi:cx="348.92856"
         sodipodi:cy="257.36218"
         sodipodi:rx="8.9285717"
         sodipodi:ry="9.2857141"
         d="m 357.85713,257.36218 c 0,5.12836 -3.99746,9.28572 -8.92857,9.28572 -4.93112,0 -8.92857,-4.15736 -8.92857,-9.28572 0,-5.12836 3.99745,-9.28571 8.92857,-9.28571 4.93111,0 8.92857,4.15735 8.92857,9.28571 z" />
      <text
         xml:space="preserve"
         style="font-size:14px;font-style:normal;font-weight:normal;line-height:125%;letter-spacing:0px;word-spacing:0px;fill:#000000;fill-opacity:1;stroke:none;font-family:Bitstream Vera Sans;-inkscape-font-specification:Sans"
         x="147.81407"
         y="134.68404"
         id="text3845-6"
         sodipodi:linespacing="125%"><tspan
           sodipodi:role="line"
           id="tspan3847-4"
           x="147.81407"
           y="134.68404">GND</tspan></text>
    </g>
    <g
       id="g3139"
       transform="matrix(0.61218626,0,0,0.61218626,-94.077515,1.4497872)">
      <text
         sodipodi:linespacing="125%"
         id="text3101"
         y="170.03937"
         x="235.19226"
         style="font-size:14px;font-style:normal;font-weight:normal;line-height:125%;letter-spacing:0px;word-spacing:0px;fill:#000000;fill-opacity:1;stroke:none;font-family:Bitstream Vera Sans;-inkscape-font-specification:Sans"
         xml:space="preserve"><tspan
           y="170.03937"
           x="235.19226"
           id="tspan3103"
           sodipodi:role="line">0V</tspan></text>
      <text
         xml:space="preserve"
         style="font-size:14px;font-style:normal;font-weight:normal;line-height:125%;letter-spacing:0px;word-spacing:0px;fill:#000000;fill-opacity:1;stroke:none;font-family:Bitstream Vera Sans;-inkscape-font-specification:Sans"
         x="233.67703"
         y="190.7475"
         id="text3105"
         sodipodi:linespacing="125%"><tspan
           sodipodi:role="line"
           id="tspan3107"
           x="233.67703"
           y="190.7475">2.5V</tspan></text>
      <text
         sodipodi:linespacing="125%"
         id="text3109"
         y="170.54443"
         x="211.73457"
         style="font-size:14px;font-style:normal;font-weight:normal;text-align:end;line-height:125%;letter-spacing:0px;word-spacing:0px;text-anchor:end;fill:#000000;fill-opacity:1;stroke:none;font-family:Bitstream Vera Sans;-inkscape-font-specification:Sans"
         xml:space="preserve"><tspan
           y="170.54443"
           x="211.73457"
           id="tspan3111"
           sodipodi:role="line">Bias</tspan><tspan
           y="188.04443"
           x="211.73457"
           sodipodi:role="line"
           id="tspan3113">Selection</tspan></text>
      <path
         d="m 357.85713,257.36218 c 0,5.12836 -3.99746,9.28572 -8.92857,9.28572 -4.93112,0 -8.92857,-4.15736 -8.92857,-9.28572 0,-5.12836 3.99745,-9.28571 8.92857,-9.28571 4.93111,0 8.92857,4.15735 8.92857,9.28571 z"
         sodipodi:ry="9.2857141"
         sodipodi:rx="8.9285717"
         sodipodi:cy="257.36218"
         sodipodi:cx="348.92856"
         id="path3819-6-2"
         style="opacity:0.9;fill:#9c5b23;fill-opacity:1;stroke:none"
         sodipodi:type="arc"
         transform="translate(-125.68484,-101.99515)" />
      <path
         transform="translate(-125.68484,-81.307398)"
         sodipodi:type="arc"
         style="opacity:0.9;fill:#9c5b23;fill-opacity:1;stroke:none"
         id="path3092"
         sodipodi:cx="348.92856"
         sodipodi:cy="257.36218"
         sodipodi:rx="8.9285717"
         sodipodi:ry="9.2857141"
         d="m 357.85713,257.36218 c 0,5.12836 -3.99746,9.28572 -8.92857,9.28572 -4.93112,0 -8.92857,-4.15736 -8.92857,-9.28572 0,-5.12836 3.99745,-9.28571 8.92857,-9.28571 4.93111,0 8.92857,4.15735 8.92857,9.28571 z" />
      <path
         d="m 357.85713,257.36218 c 0,5.12836 -3.99746,9.28572 -8.92857,9.28572 -4.93112,0 -8.92857,-4.15736 -8.92857,-9.28572 0,-5.12836 3.99745,-9.28571 8.92857,-9.28571 4.93111,0 8.92857,4.15735 8.92857,9.28571 z"
         sodipodi:ry="9.2857141"
         sodipodi:rx="8.9285717"
         sodipodi:cy="257.36218"
         sodipodi:cx="348.92856"
         id="path3094"
         style="opacity:0.9;fill:#9c5b23;fill-opacity:1;stroke:none"
         sodipodi:type="arc"
         transform="translate(-125.68484,-60.619504)" />
    </g>
    <g
       id="g3994"
       transform="matrix(0.61218626,0,0,0.61218626,-80.057381,-183.24713)">
      <path
         transform="translate(-122.85714,385.71428)"
         sodipodi:type="arc"
         style="opacity:0.9;fill:#2e504e;fill-opacity:1;stroke:none"
         id="path3996"
         sodipodi:cx="348.92856"
         sodipodi:cy="257.36218"
         sodipodi:rx="8.9285717"
         sodipodi:ry="9.2857141"
         d="m 357.85713,257.36218 c 0,5.12836 -3.99746,9.28572 -8.92857,9.28572 -4.93112,0 -8.92857,-4.15736 -8.92857,-9.28572 0,-5.12836 3.99745,-9.28571 8.92857,-9.28571 4.93111,0 8.92857,4.15735 8.92857,9.28571 z" />
    </g>
    <g
       transform="matrix(0.61218626,0,0,0.61218626,-53.156915,-179.53672)"
       id="g3998">
      <path
         d="m 357.85713,257.36218 c 0,5.12836 -3.99746,9.28572 -8.92857,9.28572 -4.93112,0 -8.92857,-4.15736 -8.92857,-9.28572 0,-5.12836 3.99745,-9.28571 8.92857,-9.28571 4.93111,0 8.92857,4.15735 8.92857,9.28571 z"
         sodipodi:ry="9.2857141"
         sodipodi:rx="8.9285717"
         sodipodi:cy="257.36218"
         sodipodi:cx="348.92856"
         id="path4000"
         style="opacity:0.9;fill:#2e504e;fill-opacity:1;stroke:none"
         sodipodi:type="arc"
         transform="translate(-122.85714,385.71428)" />
    </g>
    <g
       transform="matrix(0.61218626,0,0,0.61218626,-231.75119,-131.2649)"
       id="g4114">
      <path
         transform="translate(103.25966,324.91972)"
         sodipodi:type="arc"
         style="opacity:0.9;fill:#54d74f;fill-opacity:1;stroke:none"
         id="path4116"
         sodipodi:cx="348.92856"
         sodipodi:cy="257.36218"
         sodipodi:rx="8.9285717"
         sodipodi:ry="9.2857141"
         d="m 357.85713,257.36218 c 0,5.12836 -3.99746,9.28572 -8.92857,9.28572 -4.93112,0 -8.92857,-4.15736 -8.92857,-9.28572 0,-5.12836 3.99745,-9.28571 8.92857,-9.28571 4.93111,0 8.92857,4.15735 8.92857,9.28571 z" />
      <text
         xml:space="preserve"
         style="font-size:14px;font-style:normal;font-weight:normal;line-height:125%;letter-spacing:0px;word-spacing:0px;fill:#000000;fill-opacity:1;stroke:none;font-family:Bitstream Vera Sans;-inkscape-font-specification:Sans"
         x="367.14285"
         y="585.31549"
         id="text4118"
         sodipodi:linespacing="125%"><tspan
           sodipodi:role="line"
           id="tspan4120"
           x="367.14285"
           y="585.31549">X Sum Out</tspan></text>
    </g>
  </g>
  <g
     inkscape:groupmode="layer"
     id="layer2"
     inkscape:label="Legend"
     style="display:inline"
     transform="translate(6.7361032,-3.502502)">
    <g
       id="g3943"
       transform="matrix(0.61218626,0,0,0.61218626,-134.7794,-13.938413)">
      <rect
         y="72.514473"
         x="447.28027"
         height="157.0116"
         width="134.36722"
         id="rect3831"
         style="opacity:0.9;fill:none;stroke:#000000;stroke-opacity:1" />
      <g
         id="g3989">
        <path
           d="m 357.85713,257.36218 c 0,5.12836 -3.99746,9.28572 -8.92857,9.28572 -4.93112,0 -8.92857,-4.15736 -8.92857,-9.28572 0,-5.12836 3.99745,-9.28571 8.92857,-9.28571 4.93111,0 8.92857,4.15735 8.92857,9.28571 z"
           sodipodi:ry="9.2857141"
           sodipodi:rx="8.9285717"
           sodipodi:cy="257.36218"
           sodipodi:cx="348.92856"
           id="path3825"
           style="opacity:0.9;fill:#3a239c;fill-opacity:1;stroke:none"
           sodipodi:type="arc"
           transform="translate(122.971,-165.00001)" />
        <text
           xml:space="preserve"
           style="font-size:14px;font-style:normal;font-weight:normal;line-height:125%;letter-spacing:0px;word-spacing:0px;fill:#000000;fill-opacity:1;stroke:none;font-family:Bitstream Vera Sans;-inkscape-font-specification:Sans"
           x="484.61093"
           y="97.366081"
           id="text3833"
           sodipodi:linespacing="125%"><tspan
             sodipodi:role="line"
             id="tspan3835"
             x="484.61093"
             y="97.366081">Power</tspan></text>
      </g>
      <g
         id="g3984"
         transform="translate(0,-0.9810791)">
        <path
           transform="translate(122.971,-135.71431)"
           sodipodi:type="arc"
           style="opacity:0.9;fill:#29b1aa;fill-opacity:1;stroke:none"
           id="path3829"
           sodipodi:cx="348.92856"
           sodipodi:cy="257.36218"
           sodipodi:rx="8.9285717"
           sodipodi:ry="9.2857141"
           d="m 357.85713,257.36218 c 0,5.12836 -3.99746,9.28572 -8.92857,9.28572 -4.93112,0 -8.92857,-4.15736 -8.92857,-9.28572 0,-5.12836 3.99745,-9.28571 8.92857,-9.28571 4.93111,0 8.92857,4.15735 8.92857,9.28571 z" />
        <text
           sodipodi:linespacing="125%"
           id="text3931"
           y="125.29485"
           x="484.61093"
           style="font-size:14px;font-style:normal;font-weight:normal;line-height:125%;letter-spacing:0px;word-spacing:0px;fill:#000000;fill-opacity:1;stroke:none;font-family:Bitstream Vera Sans;-inkscape-font-specification:Sans"
           xml:space="preserve"><tspan
             y="125.29485"
             x="484.61093"
             id="tspan3933"
             sodipodi:role="line">Input</tspan></text>
      </g>
      <g
         id="g3974"
         transform="translate(0,6.3424072)">
        <path
           transform="translate(122.971,-86.428572)"
           d="m 357.85713,257.36218 c 0,5.12836 -3.99746,9.28572 -8.92857,9.28572 -4.93112,0 -8.92857,-4.15736 -8.92857,-9.28572 0,-5.12836 3.99745,-9.28571 8.92857,-9.28571 4.93111,0 8.92857,4.15735 8.92857,9.28571 z"
           sodipodi:ry="9.2857141"
           sodipodi:rx="8.9285717"
           sodipodi:cy="257.36218"
           sodipodi:cx="348.92856"
           id="path3827"
           style="opacity:0.9;fill:#54d74f;fill-opacity:1;stroke:none"
           sodipodi:type="arc" />
        <text
           xml:space="preserve"
           style="font-size:14px;font-style:normal;font-weight:normal;line-height:125%;letter-spacing:0px;word-spacing:0px;fill:#000000;fill-opacity:1;stroke:none;font-family:Bitstream Vera Sans;-inkscape-font-specification:Sans"
           x="485.19882"
           y="174.67287"
           id="text3935"
           sodipodi:linespacing="125%"><tspan
             sodipodi:role="line"
             id="tspan3937"
             x="485.19882"
             y="174.67287">Output</tspan></text>
      </g>
      <g
         id="g3969">
        <path
           d="m 357.85713,257.36218 c 0,5.12836 -3.99746,9.28572 -8.92857,9.28572 -4.93112,0 -8.92857,-4.15736 -8.92857,-9.28572 0,-5.12836 3.99745,-9.28571 8.92857,-9.28571 4.93111,0 8.92857,4.15735 8.92857,9.28571 z"
           sodipodi:ry="9.2857141"
           sodipodi:rx="8.9285717"
           sodipodi:cy="257.36218"
           sodipodi:cx="348.92856"
           id="path3092-0"
           style="opacity:0.9;fill:#9c5b23;fill-opacity:1;stroke:none"
           sodipodi:type="arc"
           transform="translate(122.971,-51.781516)" />
        <text
           sodipodi:linespacing="125%"
           id="text3949"
           y="209.22765"
           x="486.70956"
           style="font-size:14px;font-style:normal;font-weight:normal;line-height:125%;letter-spacing:0px;word-spacing:0px;fill:#000000;fill-opacity:1;stroke:none;font-family:Bitstream Vera Sans;-inkscape-font-specification:Sans"
           xml:space="preserve"><tspan
             y="209.22765"
             x="486.70956"
             id="tspan3951"
             sodipodi:role="line">Jumper</tspan></text>
      </g>
      <g
         id="g3979"
         transform="translate(0,5.6052246)">
        <path
           d="m 357.85713,257.36218 c 0,5.12836 -3.99746,9.28572 -8.92857,9.28572 -4.93112,0 -8.92857,-4.15736 -8.92857,-9.28572 0,-5.12836 3.99745,-9.28571 8.92857,-9.28571 4.93111,0 8.92857,4.15735 8.92857,9.28571 z"
           sodipodi:ry="9.2857141"
           sodipodi:rx="8.9285717"
           sodipodi:cy="257.36218"
           sodipodi:cx="348.92856"
           id="path3953"
           style="opacity:0.9;fill:#2e504e;fill-opacity:1;stroke:none"
           sodipodi:type="arc"
           transform="translate(122.971,-113.99603)" />
        <text
           xml:space="preserve"
           style="font-size:14px;font-style:normal;font-weight:normal;line-height:125%;letter-spacing:0px;word-spacing:0px;fill:#000000;fill-opacity:1;stroke:none;font-family:Bitstream Vera Sans;-inkscape-font-specification:Sans"
           x="484.61093"
           y="147.22845"
           id="text3955"
           sodipodi:linespacing="125%"><tspan
             sodipodi:role="line"
             id="tspan3957"
             x="484.61093"
             y="147.22845">Filtered Input</tspan></text>
      </g>
    </g>
  </g>
</svg>
