<?xml version="1.0" encoding="UTF-8" standalone="no"?>
<!-- Created with Inkscape (http://www.inkscape.org/) -->

<svg
   xmlns:dc="http://purl.org/dc/elements/1.1/"
   xmlns:cc="http://creativecommons.org/ns#"
   xmlns:rdf="http://www.w3.org/1999/02/22-rdf-syntax-ns#"
   xmlns:svg="http://www.w3.org/2000/svg"
   xmlns="http://www.w3.org/2000/svg"
   xmlns:sodipodi="http://sodipodi.sourceforge.net/DTD/sodipodi-0.dtd"
   xmlns:inkscape="http://www.inkscape.org/namespaces/inkscape"
   width="338.435"
   height="382.67715"
   id="svg2"
   version="1.1"
   inkscape:version="0.48.4 r9939"
   sodipodi:docname="board-diagram.svg">
  <defs
     id="defs4" />
  <sodipodi:namedview
     id="base"
     pagecolor="#ffffff"
     bordercolor="#666666"
     borderopacity="1.0"
     inkscape:pageopacity="0.0"
     inkscape:pageshadow="2"
     inkscape:zoom="0.70000001"
     inkscape:cx="618.00452"
     inkscape:cy="-43.811733"
     inkscape:document-units="px"
     inkscape:current-layer="layer1"
     showgrid="false"
     inkscape:window-width="1678"
     inkscape:window-height="1023"
     inkscape:window-x="0"
     inkscape:window-y="25"
     inkscape:window-maximized="0"
     fit-margin-top="0"
     fit-margin-left="0"
     fit-margin-right="0"
     fit-margin-bottom="0" />
  <metadata
     id="metadata7">
    <rdf:RDF>
      <cc:Work
         rdf:about="">
        <dc:format>image/svg+xml</dc:format>
        <dc:type
           rdf:resource="http://purl.org/dc/dcmitype/StillImage" />
        <dc:title />
      </cc:Work>
    </rdf:RDF>
  </metadata>
  <g
     inkscape:label="Board"
     inkscape:groupmode="layer"
     id="layer1"
     transform="translate(-136.13126,-58.256386)">
    <rect
       style="opacity:0.9;fill:#e9da8f;fill-opacity:1;stroke:none"
       id="rect2985"
       width="167.90315"
       height="382.67715"
       x="185.71355"
       y="58.256386" />
    <g
       id="g3913"
       transform="translate(6.4285714,0)">
      <rect
         y="121.64789"
         x="220.71429"
         height="47.857136"
         width="15.000003"
         id="rect3755"
         style="opacity:0.9;fill:#000000;fill-opacity:1;stroke:none" />
    </g>
    <g
       id="g3920"
       transform="matrix(0.85714287,0,0,0.8133333,38.469385,38.307616)">
      <rect
         style="opacity:0.9;fill:#000000;fill-opacity:1;stroke:none"
         id="rect3759"
         width="40.000004"
         height="53.571419"
         x="249.28572"
         y="205.21933" />
    </g>
    <g
       id="g3863"
       transform="translate(-19.285714,-188.57143)">
      <path
         transform="translate(-48.571428,192.85714)"
         sodipodi:type="arc"
         style="opacity:0.9;fill:#29b1aa;fill-opacity:1;stroke:none"
         id="path3769"
         sodipodi:cx="348.92856"
         sodipodi:cy="257.36218"
         sodipodi:rx="8.9285717"
         sodipodi:ry="9.2857141"
         d="m 357.85713,257.36218 c 0,5.12836 -3.99746,9.28572 -8.92857,9.28572 -4.93112,0 -8.92857,-4.15736 -8.92857,-9.28572 0,-5.12836 3.99745,-9.28571 8.92857,-9.28571 4.93111,0 8.92857,4.15735 8.92857,9.28571 z" />
      <text
         sodipodi:linespacing="125%"
         id="text3785"
         y="455.53769"
         x="311.42856"
         style="font-size:14px;font-style:normal;font-weight:normal;line-height:125%;letter-spacing:0px;word-spacing:0px;fill:#000000;fill-opacity:1;stroke:none;font-family:Bitstream Vera Sans;-inkscape-font-specification:Sans"
         xml:space="preserve"><tspan
           y="455.53769"
           x="311.42856"
           id="tspan3787"
           sodipodi:role="line">Y Diff In</tspan></text>
    </g>
    <g
       id="g3858"
       transform="translate(-31.428571,-186.42857)">
      <path
         transform="translate(-2.1428571,125)"
         d="m 357.85713,257.36218 c 0,5.12836 -3.99746,9.28572 -8.92857,9.28572 -4.93112,0 -8.92857,-4.15736 -8.92857,-9.28572 0,-5.12836 3.99745,-9.28571 8.92857,-9.28571 4.93111,0 8.92857,4.15735 8.92857,9.28571 z"
         sodipodi:ry="9.2857141"
         sodipodi:rx="8.9285717"
         sodipodi:cy="257.36218"
         sodipodi:cx="348.92856"
         id="path3765"
         style="opacity:0.9;fill:#54d74f;fill-opacity:1;stroke:none"
         sodipodi:type="arc" />
      <text
         sodipodi:linespacing="125%"
         id="text3789"
         y="387.58142"
         x="357.85715"
         style="font-size:14px;font-style:normal;font-weight:normal;line-height:125%;letter-spacing:0px;word-spacing:0px;fill:#000000;fill-opacity:1;stroke:none;font-family:Bitstream Vera Sans;-inkscape-font-specification:Sans"
         xml:space="preserve"><tspan
           y="387.58142"
           x="357.85715"
           id="tspan3791"
           sodipodi:role="line">Y Diff Out</tspan></text>
    </g>
    <g
       id="g3853"
       transform="translate(21.428572,-167.85714)">
      <path
         transform="translate(-130,96.428571)"
         sodipodi:type="arc"
         style="opacity:0.9;fill:#54d74f;fill-opacity:1;stroke:none"
         id="path3773"
         sodipodi:cx="348.92856"
         sodipodi:cy="257.36218"
         sodipodi:rx="8.9285717"
         sodipodi:ry="9.2857141"
         d="m 357.85713,257.36218 c 0,5.12836 -3.99746,9.28572 -8.92857,9.28572 -4.93112,0 -8.92857,-4.15736 -8.92857,-9.28572 0,-5.12836 3.99745,-9.28571 8.92857,-9.28571 4.93111,0 8.92857,4.15735 8.92857,9.28571 z" />
      <text
         sodipodi:linespacing="125%"
         id="text3793"
         y="359.00998"
         x="138.57143"
         style="font-size:14px;font-style:normal;font-weight:normal;line-height:125%;letter-spacing:0px;word-spacing:0px;fill:#000000;fill-opacity:1;stroke:none;font-family:Bitstream Vera Sans;-inkscape-font-specification:Sans"
         xml:space="preserve"><tspan
           y="359.00998"
           x="138.57143"
           id="tspan3795"
           sodipodi:role="line">X Diff Out</tspan></text>
    </g>
    <g
       id="g3868"
       transform="translate(3.5714286,-190)">
      <path
         d="m 357.85713,257.36218 c 0,5.12836 -3.99746,9.28572 -8.92857,9.28572 -4.93112,0 -8.92857,-4.15736 -8.92857,-9.28572 0,-5.12836 3.99745,-9.28571 8.92857,-9.28571 4.93111,0 8.92857,4.15735 8.92857,9.28571 z"
         sodipodi:ry="9.2857141"
         sodipodi:rx="8.9285717"
         sodipodi:cy="257.36218"
         sodipodi:cx="348.92856"
         id="path3771"
         style="opacity:0.9;fill:#29b1aa;fill-opacity:1;stroke:none"
         sodipodi:type="arc"
         transform="translate(-110.71429,187.14286)" />
      <text
         sodipodi:linespacing="125%"
         id="text3797"
         y="449.82339"
         x="170.71428"
         style="font-size:14px;font-style:normal;font-weight:normal;line-height:125%;letter-spacing:0px;word-spacing:0px;fill:#000000;fill-opacity:1;stroke:none;font-family:Bitstream Vera Sans;-inkscape-font-specification:Sans"
         xml:space="preserve"><tspan
           y="449.82339"
           x="170.71428"
           id="tspan3799"
           sodipodi:role="line">X Diff In</tspan></text>
    </g>
    <g
       id="g3873"
       transform="translate(-4.2857141,-201.42857)">
      <path
         d="m 357.85713,257.36218 c 0,5.12836 -3.99746,9.28572 -8.92857,9.28572 -4.93112,0 -8.92857,-4.15736 -8.92857,-9.28572 0,-5.12836 3.99745,-9.28571 8.92857,-9.28571 4.93111,0 8.92857,4.15735 8.92857,9.28571 z"
         sodipodi:ry="9.2857141"
         sodipodi:rx="8.9285717"
         sodipodi:cy="257.36218"
         sodipodi:cx="348.92856"
         id="path3775"
         style="opacity:0.9;fill:#54d74f;fill-opacity:1;stroke:none"
         sodipodi:type="arc"
         transform="translate(-122.14285,316.42857)" />
      <text
         sodipodi:linespacing="125%"
         id="text3801"
         y="578.88696"
         x="139.99998"
         style="font-size:14px;font-style:normal;font-weight:normal;line-height:125%;letter-spacing:0px;word-spacing:0px;fill:#000000;fill-opacity:1;stroke:none;font-family:Bitstream Vera Sans;-inkscape-font-specification:Sans"
         xml:space="preserve"><tspan
           y="578.88696"
           x="139.99998"
           id="tspan3803"
           sodipodi:role="line">X Sum Out</tspan></text>
    </g>
    <g
       id="g3888"
       transform="translate(-2.8571429,-220)">
      <path
         transform="translate(-122.85714,385.71428)"
         sodipodi:type="arc"
         style="opacity:0.9;fill:#29b1aa;fill-opacity:1;stroke:none"
         id="path3777"
         sodipodi:cx="348.92856"
         sodipodi:cy="257.36218"
         sodipodi:rx="8.9285717"
         sodipodi:ry="9.2857141"
         d="m 357.85713,257.36218 c 0,5.12836 -3.99746,9.28572 -8.92857,9.28572 -4.93112,0 -8.92857,-4.15736 -8.92857,-9.28572 0,-5.12836 3.99745,-9.28571 8.92857,-9.28571 4.93111,0 8.92857,4.15735 8.92857,9.28571 z" />
      <text
         sodipodi:linespacing="125%"
         id="text3805"
         y="648.17267"
         x="153.57143"
         style="font-size:14px;font-style:normal;font-weight:normal;line-height:125%;letter-spacing:0px;word-spacing:0px;fill:#000000;fill-opacity:1;stroke:none;font-family:Bitstream Vera Sans;-inkscape-font-specification:Sans"
         xml:space="preserve"><tspan
           y="648.17267"
           x="153.57143"
           id="tspan3807"
           sodipodi:role="line">X Sum In</tspan></text>
    </g>
    <g
       id="g3878"
       transform="translate(-42.142857,-200)">
      <path
         d="m 357.85713,257.36218 c 0,5.12836 -3.99746,9.28572 -8.92857,9.28572 -4.93112,0 -8.92857,-4.15736 -8.92857,-9.28572 0,-5.12836 3.99745,-9.28571 8.92857,-9.28571 4.93111,0 8.92857,4.15735 8.92857,9.28571 z"
         sodipodi:ry="9.2857141"
         sodipodi:rx="8.9285717"
         sodipodi:cy="257.36218"
         sodipodi:cx="348.92856"
         id="path3783"
         style="opacity:0.9;fill:#54d74f;fill-opacity:1;stroke:none"
         sodipodi:type="arc"
         transform="translate(7.1428602,322.85713)" />
      <text
         sodipodi:linespacing="125%"
         id="text3809"
         y="585.31549"
         x="367.14285"
         style="font-size:14px;font-style:normal;font-weight:normal;line-height:125%;letter-spacing:0px;word-spacing:0px;fill:#000000;fill-opacity:1;stroke:none;font-family:Bitstream Vera Sans;-inkscape-font-specification:Sans"
         xml:space="preserve"><tspan
           y="585.31549"
           x="367.14285"
           id="tspan3811"
           sodipodi:role="line">Y Sum Out</tspan></text>
    </g>
    <g
       id="g3883"
       transform="translate(-41.428571,-215)">
      <path
         transform="translate(7.8571459,357.85713)"
         sodipodi:type="arc"
         style="opacity:0.9;fill:#29b1aa;fill-opacity:1;stroke:none"
         id="path3781"
         sodipodi:cx="348.92856"
         sodipodi:cy="257.36218"
         sodipodi:rx="8.9285717"
         sodipodi:ry="9.2857141"
         d="m 357.85713,257.36218 c 0,5.12836 -3.99746,9.28572 -8.92857,9.28572 -4.93112,0 -8.92857,-4.15736 -8.92857,-9.28572 0,-5.12836 3.99745,-9.28571 8.92857,-9.28571 4.93111,0 8.92857,4.15735 8.92857,9.28571 z" />
      <text
         sodipodi:linespacing="125%"
         id="text3813"
         y="620.31549"
         x="367.85715"
         style="font-size:14px;font-style:normal;font-weight:normal;line-height:125%;letter-spacing:0px;word-spacing:0px;fill:#000000;fill-opacity:1;stroke:none;font-family:Bitstream Vera Sans;-inkscape-font-specification:Sans"
         xml:space="preserve"><tspan
           y="620.31549"
           x="367.85715"
           id="tspan3815"
           sodipodi:role="line">Y Sum In</tspan></text>
    </g>
    <g
       id="g3903"
       transform="translate(-17.142857,-3.5714286)">
      <path
         d="m 357.85713,257.36218 c 0,5.12836 -3.99746,9.28572 -8.92857,9.28572 -4.93112,0 -8.92857,-4.15736 -8.92857,-9.28572 0,-5.12836 3.99745,-9.28571 8.92857,-9.28571 4.93111,0 8.92857,4.15735 8.92857,9.28571 z"
         sodipodi:ry="9.2857141"
         sodipodi:rx="8.9285717"
         sodipodi:cy="257.36218"
         sodipodi:cx="348.92856"
         id="path3823"
         style="opacity:0.9;fill:#3a239c;fill-opacity:1;stroke:none"
         sodipodi:type="arc"
         transform="translate(-36.428579,-177.85714)" />
      <text
         sodipodi:linespacing="125%"
         id="text3837"
         y="84.60807"
         x="325"
         style="font-size:14px;font-style:normal;font-weight:normal;line-height:125%;letter-spacing:0px;word-spacing:0px;fill:#000000;fill-opacity:1;stroke:none;font-family:Bitstream Vera Sans;-inkscape-font-specification:Sans"
         xml:space="preserve"><tspan
           y="84.60807"
           x="325"
           id="tspan3839"
           sodipodi:role="line">V-</tspan></text>
    </g>
    <g
       id="g3908"
       transform="translate(-17.142857,-3.5714286)">
      <path
         d="m 357.85713,257.36218 c 0,5.12836 -3.99746,9.28572 -8.92857,9.28572 -4.93112,0 -8.92857,-4.15736 -8.92857,-9.28572 0,-5.12836 3.99745,-9.28571 8.92857,-9.28571 4.93111,0 8.92857,4.15735 8.92857,9.28571 z"
         sodipodi:ry="9.2857141"
         sodipodi:rx="8.9285717"
         sodipodi:cy="257.36218"
         sodipodi:cx="348.92856"
         id="path3819"
         style="opacity:0.9;fill:#3a239c;fill-opacity:1;stroke:none"
         sodipodi:type="arc"
         transform="translate(-82.142865,-177.85714)" />
      <text
         sodipodi:linespacing="125%"
         id="text3841"
         y="84.60807"
         x="234.28572"
         style="font-size:14px;font-style:normal;font-weight:normal;line-height:125%;letter-spacing:0px;word-spacing:0px;fill:#000000;fill-opacity:1;stroke:none;font-family:Bitstream Vera Sans;-inkscape-font-specification:Sans"
         xml:space="preserve"><tspan
           y="84.60807"
           x="234.28572"
           id="tspan3843"
           sodipodi:role="line">V+</tspan></text>
    </g>
    <g
       id="g3898"
       transform="translate(-17.142857,-3.5714286)">
      <path
         transform="translate(-60.03772,-177.85714)"
         sodipodi:type="arc"
         style="opacity:0.9;fill:#3a239c;fill-opacity:1;stroke:none"
         id="path3821"
         sodipodi:cx="348.92856"
         sodipodi:cy="257.36218"
         sodipodi:rx="8.9285717"
         sodipodi:ry="9.2857141"
         d="m 357.85713,257.36218 c 0,5.12836 -3.99746,9.28572 -8.92857,9.28572 -4.93112,0 -8.92857,-4.15736 -8.92857,-9.28572 0,-5.12836 3.99745,-9.28571 8.92857,-9.28571 4.93111,0 8.92857,4.15735 8.92857,9.28571 z" />
      <text
         sodipodi:linespacing="125%"
         id="text3845"
         y="101.6479"
         x="273.57144"
         style="font-size:14px;font-style:normal;font-weight:normal;line-height:125%;letter-spacing:0px;word-spacing:0px;fill:#000000;fill-opacity:1;stroke:none;font-family:Bitstream Vera Sans;-inkscape-font-specification:Sans"
         xml:space="preserve"><tspan
           y="101.6479"
           x="273.57144"
           id="tspan3847"
           sodipodi:role="line">GND</tspan></text>
    </g>
    <g
       id="g3893"
       transform="translate(-13.571429,-234.28572)">
      <path
         d="m 357.85713,257.36218 c 0,5.12836 -3.99746,9.28572 -8.92857,9.28572 -4.93112,0 -8.92857,-4.15736 -8.92857,-9.28572 0,-5.12836 3.99745,-9.28571 8.92857,-9.28571 4.93111,0 8.92857,4.15735 8.92857,9.28571 z"
         sodipodi:ry="9.2857141"
         sodipodi:rx="8.9285717"
         sodipodi:cy="257.36218"
         sodipodi:cx="348.92856"
         id="path3779"
         style="opacity:0.9;fill:#3a239c;fill-opacity:1;stroke:none"
         sodipodi:type="arc"
         transform="translate(-65.714283,407.14285)" />
      <text
         sodipodi:linespacing="125%"
         id="text3849"
         y="669.6012"
         x="295.71426"
         style="font-size:14px;font-style:normal;font-weight:normal;line-height:125%;letter-spacing:0px;word-spacing:0px;fill:#000000;fill-opacity:1;stroke:none;font-family:Bitstream Vera Sans;-inkscape-font-specification:Sans"
         xml:space="preserve"><tspan
           y="669.6012"
           x="295.71426"
           id="tspan3851"
           sodipodi:role="line">GND</tspan></text>
    </g>
    <g
       transform="translate(74.285714,0)"
       id="g3916">
      <rect
         style="opacity:0.9;fill:#000000;fill-opacity:1;stroke:none"
         id="rect3918"
         width="15.000003"
         height="47.857136"
         x="220.71429"
         y="121.64789" />
    </g>
    <g
       transform="matrix(0.85714287,0,0,0.8133333,38.469385,116.16476)"
       id="g3923">
      <rect
         y="205.21933"
         x="249.28572"
         height="53.571419"
         width="40.000004"
         id="rect3925"
         style="opacity:0.9;fill:#000000;fill-opacity:1;stroke:none" />
    </g>
    <g
       id="g3927"
       transform="matrix(0.85714287,0,0,0.8133333,38.469385,201.16476)">
      <rect
         style="opacity:0.9;fill:#000000;fill-opacity:1;stroke:none"
         id="rect3929"
         width="40.000004"
         height="53.571419"
         x="249.28572"
         y="205.21933" />
    </g>
  </g>
  <g
     inkscape:groupmode="layer"
     id="layer2"
     inkscape:label="Legend"
     transform="translate(-136.13126,-58.256386)">
    <g
       id="g3943"
       transform="translate(-87.883271,-5.0507627)">
      <path
         transform="translate(122.85714,-165.00001)"
         sodipodi:type="arc"
         style="opacity:0.9;fill:#3a239c;fill-opacity:1;stroke:none"
         id="path3825"
         sodipodi:cx="348.92856"
         sodipodi:cy="257.36218"
         sodipodi:rx="8.9285717"
         sodipodi:ry="9.2857141"
         d="m 357.85713,257.36218 c 0,5.12836 -3.99746,9.28572 -8.92857,9.28572 -4.93112,0 -8.92857,-4.15736 -8.92857,-9.28572 0,-5.12836 3.99745,-9.28571 8.92857,-9.28571 4.93111,0 8.92857,4.15735 8.92857,9.28571 z" />
      <path
         sodipodi:type="arc"
         style="opacity:0.9;fill:#54d74f;fill-opacity:1;stroke:none"
         id="path3827"
         sodipodi:cx="348.92856"
         sodipodi:cy="257.36218"
         sodipodi:rx="8.9285717"
         sodipodi:ry="9.2857141"
         d="m 357.85713,257.36218 c 0,5.12836 -3.99746,9.28572 -8.92857,9.28572 -4.93112,0 -8.92857,-4.15736 -8.92857,-9.28572 0,-5.12836 3.99745,-9.28571 8.92857,-9.28571 4.93111,0 8.92857,4.15735 8.92857,9.28571 z"
         transform="translate(122.85714,-86.428572)" />
      <path
         d="m 357.85713,257.36218 c 0,5.12836 -3.99746,9.28572 -8.92857,9.28572 -4.93112,0 -8.92857,-4.15736 -8.92857,-9.28572 0,-5.12836 3.99745,-9.28571 8.92857,-9.28571 4.93111,0 8.92857,4.15735 8.92857,9.28571 z"
         sodipodi:ry="9.2857141"
         sodipodi:rx="8.9285717"
         sodipodi:cy="257.36218"
         sodipodi:cx="348.92856"
         id="path3829"
         style="opacity:0.9;fill:#29b1aa;fill-opacity:1;stroke:none"
         sodipodi:type="arc"
         transform="translate(122.85714,-125.71431)" />
      <rect
         y="72.514473"
         x="447.28027"
         height="115.59534"
         width="114.66924"
         id="rect3831"
         style="opacity:0.9;fill:none;stroke:#000000;stroke-opacity:1" />
      <text
         sodipodi:linespacing="125%"
         id="text3833"
         y="97.366081"
         x="486.70956"
         style="font-size:14px;font-style:normal;font-weight:normal;line-height:125%;letter-spacing:0px;word-spacing:0px;fill:#000000;fill-opacity:1;stroke:none;font-family:Bitstream Vera Sans;-inkscape-font-specification:Sans"
         xml:space="preserve"><tspan
           y="97.366081"
           x="486.70956"
           id="tspan3835"
           sodipodi:role="line">Power</tspan></text>
      <text
         xml:space="preserve"
         style="font-size:14px;font-style:normal;font-weight:normal;line-height:125%;letter-spacing:0px;word-spacing:0px;fill:#000000;fill-opacity:1;stroke:none;font-family:Bitstream Vera Sans;-inkscape-font-specification:Sans"
         x="486.70956"
         y="136.65178"
         id="text3931"
         sodipodi:linespacing="125%"><tspan
           sodipodi:role="line"
           id="tspan3933"
           x="486.70956"
           y="136.65178">Input</tspan></text>
      <text
         sodipodi:linespacing="125%"
         id="text3935"
         y="175.93752"
         x="486.70956"
         style="font-size:14px;font-style:normal;font-weight:normal;line-height:125%;letter-spacing:0px;word-spacing:0px;fill:#000000;fill-opacity:1;stroke:none;font-family:Bitstream Vera Sans;-inkscape-font-specification:Sans"
         xml:space="preserve"><tspan
           y="175.93752"
           x="486.70956"
           id="tspan3937"
           sodipodi:role="line">Output</tspan></text>
    </g>
  </g>
</svg>
